<mxfile host="app.diagrams.net" modified="2024-03-10T14:14:00.236Z" agent="Mozilla/5.0 (Windows NT 10.0; Win64; x64) AppleWebKit/537.36 (KHTML, like Gecko) Chrome/122.0.0.0 Safari/537.36 Edg/122.0.0.0" version="24.0.4" etag="S58yRC6xF21J7Ic06tOI" type="github">
  <diagram name="Page-1" id="jqX5CVmQiKKpXrFk2q81">
    <mxGraphModel>
      <root>
        <mxCell id="0" />
        <mxCell id="1" parent="0" />
      </root>
    </mxGraphModel>
  </diagram>
</mxfile>
